<svg width="16" height="16" viewBox="0 0 16 16" fill="none" xmlns="http://www.w3.org/2000/svg">
<g clip-path="url(#clip0_2_5392)">
<path d="M8 4.25C9.6375 4.25 11.05 5.4125 11.3687 7.01875L11.5563 7.95625L12.5125 8.025C13.4875 8.0875 14.25 8.90625 14.25 9.875C14.25 10.9062 13.4062 11.75 12.375 11.75H4.25C2.86875 11.75 1.75 10.6313 1.75 9.25C1.75 7.96875 2.70625 6.9 3.975 6.76875L4.64375 6.7L4.95625 6.10625C5.55 4.9625 6.7125 4.25 8 4.25ZM8 3C6.19375 3 4.625 4.025 3.84375 5.525C1.9625 5.725 0.5 7.31875 0.5 9.25C0.5 11.3187 2.18125 13 4.25 13H12.375C14.1 13 15.5 11.6 15.5 9.875C15.5 8.225 14.2188 6.8875 12.5938 6.775C12.1688 4.61875 10.275 3 8 3Z" fill="white"/>
</g>
<defs>
<clipPath id="clip0_2_5392">
<rect width="15" height="15" fill="white" transform="translate(0.5 0.5)"/>
</clipPath>
</defs>
</svg>
