<svg width="20" height="20" viewBox="0 0 20 20" fill="none" xmlns="http://www.w3.org/2000/svg">
<path d="M9.99967 4.91634C10.9663 4.91634 11.7497 5.69967 11.7497 6.66634C11.7497 7.63301 10.9663 8.41634 9.99967 8.41634C9.03301 8.41634 8.24967 7.63301 8.24967 6.66634C8.24967 5.69967 9.03301 4.91634 9.99967 4.91634ZM9.99967 12.4163C12.4747 12.4163 15.083 13.633 15.083 14.1663V15.083H4.91634V14.1663C4.91634 13.633 7.52467 12.4163 9.99967 12.4163ZM9.99967 3.33301C8.15801 3.33301 6.66634 4.82467 6.66634 6.66634C6.66634 8.50801 8.15801 9.99967 9.99967 9.99967C11.8413 9.99967 13.333 8.50801 13.333 6.66634C13.333 4.82467 11.8413 3.33301 9.99967 3.33301ZM9.99967 10.833C7.77467 10.833 3.33301 11.9497 3.33301 14.1663V15.833C3.33301 16.2913 3.70801 16.6663 4.16634 16.6663H15.833C16.2913 16.6663 16.6663 16.2913 16.6663 15.833V14.1663C16.6663 11.9497 12.2247 10.833 9.99967 10.833Z" fill="#919191"/>
</svg>
