<svg width="16" height="16" viewBox="0 0 16 16" fill="none" xmlns="http://www.w3.org/2000/svg">
<path d="M8 8C7.3125 8 6.75 7.4375 6.75 6.75C6.75 6.0625 7.3125 5.5 8 5.5C8.6875 5.5 9.25 6.0625 9.25 6.75C9.25 7.4375 8.6875 8 8 8ZM11.75 6.875C11.75 4.60625 10.0937 3 8 3C5.90625 3 4.25 4.60625 4.25 6.875C4.25 8.3375 5.46875 10.275 8 12.5875C10.5313 10.275 11.75 8.3375 11.75 6.875ZM8 1.75C10.625 1.75 13 3.7625 13 6.875C13 8.95 11.3312 11.4063 8 14.25C4.66875 11.4063 3 8.95 3 6.875C3 3.7625 5.375 1.75 8 1.75Z" fill="white"/>
</svg>
