<svg width="16" height="16" viewBox="0 0 16 16" fill="none" xmlns="http://www.w3.org/2000/svg">
<path d="M6.125 9.09375C4.6625 9.09375 1.75 9.825 1.75 11.2812V12.375H10.5V11.2812C10.5 9.825 7.5875 9.09375 6.125 9.09375ZM3.2125 11.125C3.7375 10.7625 5.00625 10.3438 6.125 10.3438C7.24375 10.3438 8.5125 10.7625 9.0375 11.125H3.2125ZM6.125 8C7.33125 8 8.3125 7.01875 8.3125 5.8125C8.3125 4.60625 7.33125 3.625 6.125 3.625C4.91875 3.625 3.9375 4.60625 3.9375 5.8125C3.9375 7.01875 4.91875 8 6.125 8ZM6.125 4.875C6.64375 4.875 7.0625 5.29375 7.0625 5.8125C7.0625 6.33125 6.64375 6.75 6.125 6.75C5.60625 6.75 5.1875 6.33125 5.1875 5.8125C5.1875 5.29375 5.60625 4.875 6.125 4.875ZM10.525 9.13125C11.25 9.65625 11.75 10.3562 11.75 11.2812V12.375H14.25V11.2812C14.25 10.0188 12.0625 9.3 10.525 9.13125ZM9.875 8C11.0813 8 12.0625 7.01875 12.0625 5.8125C12.0625 4.60625 11.0813 3.625 9.875 3.625C9.5375 3.625 9.225 3.70625 8.9375 3.84375C9.33125 4.4 9.5625 5.08125 9.5625 5.8125C9.5625 6.54375 9.33125 7.225 8.9375 7.78125C9.225 7.91875 9.5375 8 9.875 8Z" fill="white"/>
</svg>
